<svg width="512" height="335" viewBox="0 0 512 335" fill="none" xmlns="http://www.w3.org/2000/svg">
<path d="M268.532 59.0566C277.172 59.0566 284.176 52.0585 284.176 43.426C284.176 34.7934 277.172 27.7953 268.532 27.7953C259.892 27.7953 252.888 34.7934 252.888 43.426C252.888 52.0585 259.892 59.0566 268.532 59.0566Z" fill="#F9A826"/>
<path d="M389.888 291.033C413.141 273.337 424.247 243.601 417.294 215.234C417.121 214.529 416.939 213.826 416.747 213.124C412.137 196.286 400.733 180.283 384.112 174.903C370.156 170.385 354.923 173.859 340.363 172.063C311.782 168.536 289.624 145.43 274.032 121.239C258.441 97.0467 246.459 69.9673 225.741 49.9812C191.592 17.0376 135.886 9.94482 93.5461 31.3887C51.206 52.8326 24.2358 100.408 25.386 147.822C26.5362 195.237 54.7083 240.568 95.621 264.619C110.651 273.455 128.034 279.714 145.334 277.524C160.345 275.623 173.984 267.565 188.924 265.172C212.414 261.411 235.754 272.022 256.07 284.387C276.387 296.753 296.011 311.409 319.098 317.142C341.516 322.708 369.289 306.709 389.888 291.033Z" fill="#FFFBDC"/>
<path d="M356.478 32.3843C355.969 32.0448 355.453 31.7228 354.943 31.395C340.208 21.9793 324.415 14.3301 307.89 8.60536L304.058 61.4202H279.766V0.895632C278.237 0.579515 276.696 0.280962 275.155 -3.05176e-05V61.4202H246.288C230.396 61.4202 215.155 55.1126 203.918 43.885C192.68 32.6574 186.367 17.4296 186.367 1.55135V1.5513C184.821 1.88497 183.286 2.24207 181.751 2.62258V61.4202H158.238L154.588 11.0582C137.605 17.5657 121.483 26.1233 106.579 36.5407C106.321 36.7163 106.064 36.8978 105.812 37.0734C104.517 37.9808 103.24 38.9057 101.968 39.8423V241.331H171.263L170.038 224.384L163.3 131.335H298.99L292.252 224.384L291.027 241.331H359.554V34.4215C358.535 33.7308 357.51 33.0517 356.478 32.3843ZM181.751 115.968H162.187L158.572 66.0331H181.751V115.968ZM275.155 115.968H242.298V114.978C242.298 114.503 242.204 114.032 242.022 113.593C241.839 113.153 241.572 112.754 241.235 112.418C240.898 112.082 240.498 111.816 240.058 111.634C239.618 111.453 239.147 111.36 238.671 111.361H224.387C223.911 111.361 223.44 111.454 223.001 111.636C222.561 111.817 222.162 112.084 221.826 112.42C221.49 112.756 221.223 113.155 221.041 113.594C220.859 114.033 220.766 114.503 220.766 114.978V115.968H186.367V66.0331H275.155V115.968ZM279.766 115.968V66.0331H303.724L300.109 115.968H279.766Z" fill="#3F3D56"/>
<path d="M0 254C5.65298 260.186 11.7673 266 18.2983 271.399L493.702 272C500.233 266.601 506.347 260.787 512 254.601L0 254Z" fill="#3F3D56"/>
<path d="M290.274 199.968V250.139C290.274 250.778 290.529 251.391 290.981 251.843C291.434 252.296 292.047 252.55 292.687 252.55H367.099C367.739 252.55 368.353 252.296 368.805 251.843C369.258 251.391 369.512 250.778 369.513 250.139V199.968C369.511 199.329 369.256 198.717 368.804 198.265C368.352 197.814 367.739 197.56 367.099 197.559H292.687C292.048 197.56 291.435 197.814 290.982 198.265C290.53 198.717 290.275 199.329 290.274 199.968Z" fill="#3F3D56"/>
<path d="M292.019 200.592V249.52C292.02 249.862 292.156 250.189 292.398 250.431C292.64 250.672 292.967 250.808 293.309 250.809H366.48C366.822 250.808 367.15 250.672 367.391 250.431C367.633 250.189 367.769 249.862 367.77 249.52V200.592C367.77 200.25 367.634 199.922 367.392 199.68C367.15 199.438 366.822 199.301 366.48 199.301H293.309C292.967 199.301 292.639 199.438 292.397 199.68C292.155 199.922 292.019 200.25 292.019 200.592Z" fill="#F9A826"/>
<path d="M288.717 259.924C288.854 260.094 289.027 260.232 289.224 260.326C289.422 260.421 289.638 260.469 289.856 260.468H369.534C369.752 260.468 369.967 260.419 370.164 260.325C370.361 260.231 370.534 260.095 370.671 259.926C370.808 259.757 370.906 259.559 370.957 259.348C371.009 259.136 371.012 258.916 370.967 258.703L369.731 252.833C369.679 252.593 369.569 252.37 369.409 252.185C369.25 251.999 369.047 251.856 368.818 251.768C368.652 251.703 368.475 251.67 368.297 251.67H291.088C290.91 251.67 290.734 251.703 290.568 251.768C290.339 251.856 290.135 251.999 289.976 252.185C289.817 252.37 289.706 252.593 289.655 252.833L288.418 258.703C288.374 258.916 288.378 259.136 288.43 259.347C288.482 259.558 288.58 259.755 288.717 259.924Z" fill="#2F2E41"/>
<path d="M365.564 254.199H367.445C367.603 254.199 367.731 254.071 367.731 253.913V253.013C367.731 252.856 367.603 252.728 367.445 252.728H365.564C365.406 252.728 365.277 252.856 365.277 253.013V253.913C365.277 254.071 365.406 254.199 365.564 254.199Z" fill="#3F3D56"/>
<path d="M360.655 254.199H362.537C362.695 254.199 362.823 254.071 362.823 253.913V253.013C362.823 252.856 362.695 252.728 362.537 252.728H360.655C360.497 252.728 360.369 252.856 360.369 253.013V253.913C360.369 254.071 360.497 254.199 360.655 254.199Z" fill="#3F3D56"/>
<path d="M355.747 254.199H357.629C357.787 254.199 357.915 254.071 357.915 253.913V253.013C357.915 252.856 357.787 252.728 357.629 252.728H355.747C355.589 252.728 355.461 252.856 355.461 253.013V253.913C355.461 254.071 355.589 254.199 355.747 254.199Z" fill="#3F3D56"/>
<path d="M350.839 254.199H352.721C352.879 254.199 353.007 254.071 353.007 253.913V253.013C353.007 252.856 352.879 252.728 352.721 252.728H350.839C350.681 252.728 350.553 252.856 350.553 253.013V253.913C350.553 254.071 350.681 254.199 350.839 254.199Z" fill="#3F3D56"/>
<path d="M345.931 254.199H347.813C347.971 254.199 348.099 254.071 348.099 253.913V253.013C348.099 252.856 347.971 252.728 347.813 252.728H345.931C345.773 252.728 345.645 252.856 345.645 253.013V253.913C345.645 254.071 345.773 254.199 345.931 254.199Z" fill="#3F3D56"/>
<path d="M341.023 254.199H342.905C343.063 254.199 343.191 254.071 343.191 253.913V253.013C343.191 252.856 343.063 252.728 342.905 252.728H341.023C340.865 252.728 340.737 252.856 340.737 253.013V253.913C340.737 254.071 340.865 254.199 341.023 254.199Z" fill="#3F3D56"/>
<path d="M336.115 254.199H337.997C338.155 254.199 338.283 254.071 338.283 253.913V253.013C338.283 252.856 338.155 252.728 337.997 252.728H336.115C335.957 252.728 335.829 252.856 335.829 253.013V253.913C335.829 254.071 335.957 254.199 336.115 254.199Z" fill="#3F3D56"/>
<path d="M331.207 254.199H333.089C333.247 254.199 333.375 254.071 333.375 253.913V253.013C333.375 252.856 333.247 252.728 333.089 252.728H331.207C331.049 252.728 330.921 252.856 330.921 253.013V253.913C330.921 254.071 331.049 254.199 331.207 254.199Z" fill="#3F3D56"/>
<path d="M326.299 254.199H328.181C328.339 254.199 328.467 254.071 328.467 253.913V253.013C328.467 252.856 328.339 252.728 328.181 252.728H326.299C326.141 252.728 326.013 252.856 326.013 253.013V253.913C326.013 254.071 326.141 254.199 326.299 254.199Z" fill="#3F3D56"/>
<path d="M321.391 254.199H323.273C323.431 254.199 323.559 254.071 323.559 253.913V253.013C323.559 252.856 323.431 252.728 323.273 252.728H321.391C321.233 252.728 321.104 252.856 321.104 253.013V253.913C321.104 254.071 321.233 254.199 321.391 254.199Z" fill="#3F3D56"/>
<path d="M316.482 254.199H318.364C318.522 254.199 318.651 254.071 318.651 253.913V253.013C318.651 252.856 318.522 252.728 318.364 252.728H316.482C316.324 252.728 316.196 252.856 316.196 253.013V253.913C316.196 254.071 316.324 254.199 316.482 254.199Z" fill="#3F3D56"/>
<path d="M311.574 254.199H313.456C313.614 254.199 313.742 254.071 313.742 253.913V253.013C313.742 252.856 313.614 252.728 313.456 252.728H311.574C311.416 252.728 311.288 252.856 311.288 253.013V253.913C311.288 254.071 311.416 254.199 311.574 254.199Z" fill="#3F3D56"/>
<path d="M306.666 254.199H308.548C308.706 254.199 308.834 254.071 308.834 253.913V253.013C308.834 252.856 308.706 252.728 308.548 252.728H306.666C306.508 252.728 306.38 252.856 306.38 253.013V253.913C306.38 254.071 306.508 254.199 306.666 254.199Z" fill="#3F3D56"/>
<path d="M301.758 254.199H303.64C303.798 254.199 303.926 254.071 303.926 253.913V253.013C303.926 252.856 303.798 252.728 303.64 252.728H301.758C301.6 252.728 301.472 252.856 301.472 253.013V253.913C301.472 254.071 301.6 254.199 301.758 254.199Z" fill="#3F3D56"/>
<path d="M296.85 254.199H298.732C298.89 254.199 299.018 254.071 299.018 253.913V253.013C299.018 252.856 298.89 252.728 298.732 252.728H296.85C296.692 252.728 296.564 252.856 296.564 253.013V253.913C296.564 254.071 296.692 254.199 296.85 254.199Z" fill="#3F3D56"/>
<path d="M291.942 254.199H293.824C293.982 254.199 294.11 254.071 294.11 253.913V253.013C294.11 252.856 293.982 252.728 293.824 252.728H291.942C291.784 252.728 291.656 252.856 291.656 253.013V253.913C291.656 254.071 291.784 254.199 291.942 254.199Z" fill="#3F3D56"/>
<path d="M365.622 256.651H367.504C367.661 256.651 367.79 256.523 367.79 256.365V255.465C367.79 255.307 367.661 255.179 367.504 255.179H365.622C365.464 255.179 365.335 255.307 365.335 255.465V256.365C365.335 256.523 365.464 256.651 365.622 256.651Z" fill="#3F3D56"/>
<path d="M360.713 256.651H362.595C362.753 256.651 362.881 256.523 362.881 256.365V255.465C362.881 255.307 362.753 255.179 362.595 255.179H360.713C360.555 255.179 360.427 255.307 360.427 255.465V256.365C360.427 256.523 360.555 256.651 360.713 256.651Z" fill="#3F3D56"/>
<path d="M355.805 256.651H357.687C357.845 256.651 357.973 256.523 357.973 256.365V255.465C357.973 255.307 357.845 255.179 357.687 255.179H355.805C355.647 255.179 355.519 255.307 355.519 255.465V256.365C355.519 256.523 355.647 256.651 355.805 256.651Z" fill="#3F3D56"/>
<path d="M350.897 256.651H352.779C352.937 256.651 353.065 256.523 353.065 256.365V255.465C353.065 255.307 352.937 255.179 352.779 255.179H350.897C350.739 255.179 350.611 255.307 350.611 255.465V256.365C350.611 256.523 350.739 256.651 350.897 256.651Z" fill="#3F3D56"/>
<path d="M345.989 256.651H347.871C348.029 256.651 348.157 256.523 348.157 256.365V255.465C348.157 255.307 348.029 255.179 347.871 255.179H345.989C345.831 255.179 345.703 255.307 345.703 255.465V256.365C345.703 256.523 345.831 256.651 345.989 256.651Z" fill="#3F3D56"/>
<path d="M341.081 256.651H342.963C343.121 256.651 343.249 256.523 343.249 256.365V255.465C343.249 255.307 343.121 255.179 342.963 255.179H341.081C340.923 255.179 340.795 255.307 340.795 255.465V256.365C340.795 256.523 340.923 256.651 341.081 256.651Z" fill="#3F3D56"/>
<path d="M336.173 256.651H338.055C338.213 256.651 338.341 256.523 338.341 256.365V255.465C338.341 255.307 338.213 255.179 338.055 255.179H336.173C336.015 255.179 335.887 255.307 335.887 255.465V256.365C335.887 256.523 336.015 256.651 336.173 256.651Z" fill="#3F3D56"/>
<path d="M331.265 256.651H333.147C333.305 256.651 333.433 256.523 333.433 256.365V255.465C333.433 255.307 333.305 255.179 333.147 255.179H331.265C331.107 255.179 330.979 255.307 330.979 255.465V256.365C330.979 256.523 331.107 256.651 331.265 256.651Z" fill="#3F3D56"/>
<path d="M326.357 256.651H328.239C328.397 256.651 328.525 256.523 328.525 256.365V255.465C328.525 255.307 328.397 255.179 328.239 255.179H326.357C326.199 255.179 326.071 255.307 326.071 255.465V256.365C326.071 256.523 326.199 256.651 326.357 256.651Z" fill="#3F3D56"/>
<path d="M321.449 256.651H323.331C323.489 256.651 323.617 256.523 323.617 256.365V255.465C323.617 255.307 323.489 255.179 323.331 255.179H321.449C321.291 255.179 321.163 255.307 321.163 255.465V256.365C321.163 256.523 321.291 256.651 321.449 256.651Z" fill="#3F3D56"/>
<path d="M316.541 256.651H318.422C318.58 256.651 318.708 256.523 318.708 256.365V255.465C318.708 255.307 318.58 255.179 318.422 255.179H316.541C316.383 255.179 316.254 255.307 316.254 255.465V256.365C316.254 256.523 316.383 256.651 316.541 256.651Z" fill="#3F3D56"/>
<path d="M311.632 256.651H313.514C313.672 256.651 313.8 256.523 313.8 256.365V255.465C313.8 255.307 313.672 255.179 313.514 255.179H311.632C311.474 255.179 311.346 255.307 311.346 255.465V256.365C311.346 256.523 311.474 256.651 311.632 256.651Z" fill="#3F3D56"/>
<path d="M306.724 256.651H308.606C308.764 256.651 308.892 256.523 308.892 256.365V255.465C308.892 255.307 308.764 255.179 308.606 255.179H306.724C306.566 255.179 306.438 255.307 306.438 255.465V256.365C306.438 256.523 306.566 256.651 306.724 256.651Z" fill="#3F3D56"/>
<path d="M301.816 256.651H303.698C303.856 256.651 303.984 256.523 303.984 256.365V255.465C303.984 255.307 303.856 255.179 303.698 255.179H301.816C301.658 255.179 301.53 255.307 301.53 255.465V256.365C301.53 256.523 301.658 256.651 301.816 256.651Z" fill="#3F3D56"/>
<path d="M296.908 256.651H298.79C298.948 256.651 299.076 256.523 299.076 256.365V255.465C299.076 255.307 298.948 255.179 298.79 255.179H296.908C296.75 255.179 296.622 255.307 296.622 255.465V256.365C296.622 256.523 296.75 256.651 296.908 256.651Z" fill="#3F3D56"/>
<path d="M292 256.651H293.882C294.04 256.651 294.168 256.523 294.168 256.365V255.465C294.168 255.307 294.04 255.179 293.882 255.179H292C291.842 255.179 291.714 255.307 291.714 255.465V256.365C291.714 256.523 291.842 256.651 292 256.651Z" fill="#3F3D56"/>
<path d="M324.884 259.593H343.945C344.103 259.593 344.231 259.465 344.231 259.307V258.408C344.231 258.25 344.103 258.122 343.945 258.122H324.884C324.726 258.122 324.598 258.25 324.598 258.408V259.307C324.598 259.465 324.726 259.593 324.884 259.593Z" fill="#3F3D56"/>
<path d="M304.69 210.005H303.024C302.519 210.005 302.11 210.414 302.11 210.919C302.11 211.423 302.519 211.833 303.024 211.833H304.69C305.196 211.833 305.605 211.423 305.605 210.919C305.605 210.414 305.196 210.005 304.69 210.005Z" fill="white"/>
<path d="M323.746 210.005H322.08C321.575 210.005 321.165 210.414 321.165 210.919C321.165 211.423 321.575 211.833 322.08 211.833H323.746C324.251 211.833 324.66 211.423 324.66 210.919C324.66 210.414 324.251 210.005 323.746 210.005Z" fill="white"/>
<path d="M329.145 210.005H327.479C326.973 210.005 326.564 210.414 326.564 210.919C326.564 211.423 326.973 211.833 327.479 211.833H329.145C329.65 211.833 330.059 211.423 330.059 210.919C330.059 210.414 329.65 210.005 329.145 210.005Z" fill="white"/>
<path d="M318.563 209.853H308.207C307.702 209.853 307.293 210.262 307.293 210.766C307.293 211.271 307.702 211.68 308.207 211.68H318.563C319.068 211.68 319.477 211.271 319.477 210.766C319.477 210.262 319.068 209.853 318.563 209.853Z" fill="white"/>
<path d="M343.97 209.853H333.615C333.109 209.853 332.7 210.262 332.7 210.766C332.7 211.271 333.109 211.68 333.615 211.68H343.97C344.475 211.68 344.884 211.271 344.884 210.766C344.884 210.262 344.475 209.853 343.97 209.853Z" fill="white"/>
<path d="M309.772 214.13H308.106C307.601 214.13 307.191 214.539 307.191 215.044C307.191 215.549 307.601 215.958 308.106 215.958H309.772C310.277 215.958 310.687 215.549 310.687 215.044C310.687 214.539 310.277 214.13 309.772 214.13Z" fill="white"/>
<path d="M328.827 214.13H327.161C326.656 214.13 326.246 214.539 326.246 215.044C326.246 215.549 326.656 215.958 327.161 215.958H328.827C329.332 215.958 329.742 215.549 329.742 215.044C329.742 214.539 329.332 214.13 328.827 214.13Z" fill="white"/>
<path d="M334.226 214.13H332.56C332.055 214.13 331.646 214.539 331.646 215.044C331.646 215.549 332.055 215.958 332.56 215.958H334.226C334.731 215.958 335.141 215.549 335.141 215.044C335.141 214.539 334.731 214.13 334.226 214.13Z" fill="white"/>
<path d="M323.644 213.978H313.289C312.784 213.978 312.374 214.387 312.374 214.891C312.374 215.396 312.784 215.805 313.289 215.805H323.644C324.149 215.805 324.559 215.396 324.559 214.891C324.559 214.387 324.149 213.978 323.644 213.978Z" fill="white"/>
<path d="M349.051 213.978H338.696C338.191 213.978 337.781 214.387 337.781 214.891C337.781 215.396 338.191 215.805 338.696 215.805H349.051C349.556 215.805 349.966 215.396 349.966 214.891C349.966 214.387 349.556 213.978 349.051 213.978Z" fill="white"/>
<path d="M314.853 218.255H313.187C312.682 218.255 312.272 218.664 312.272 219.169C312.272 219.674 312.682 220.083 313.187 220.083H314.853C315.358 220.083 315.768 219.674 315.768 219.169C315.768 218.664 315.358 218.255 314.853 218.255Z" fill="white"/>
<path d="M333.909 218.255H332.242C331.737 218.255 331.328 218.664 331.328 219.169C331.328 219.674 331.737 220.083 332.242 220.083H333.909C334.414 220.083 334.823 219.674 334.823 219.169C334.823 218.664 334.414 218.255 333.909 218.255Z" fill="white"/>
<path d="M339.308 218.255H337.641C337.136 218.255 336.727 218.664 336.727 219.169C336.727 219.674 337.136 220.083 337.641 220.083H339.308C339.813 220.083 340.222 219.674 340.222 219.169C340.222 218.664 339.813 218.255 339.308 218.255Z" fill="white"/>
<path d="M328.726 218.103H318.37C317.865 218.103 317.456 218.512 317.456 219.017C317.456 219.521 317.865 219.93 318.37 219.93H328.726C329.231 219.93 329.64 219.521 329.64 219.017C329.64 218.512 329.231 218.103 328.726 218.103Z" fill="white"/>
<path d="M354.133 218.103H343.777C343.272 218.103 342.863 218.512 342.863 219.017C342.863 219.521 343.272 219.93 343.777 219.93H354.133C354.638 219.93 355.047 219.521 355.047 219.017C355.047 218.512 354.638 218.103 354.133 218.103Z" fill="white"/>
<path d="M319.935 222.38H318.269C317.764 222.38 317.354 222.789 317.354 223.294C317.354 223.799 317.764 224.208 318.269 224.208H319.935C320.44 224.208 320.849 223.799 320.849 223.294C320.849 222.789 320.44 222.38 319.935 222.38Z" fill="white"/>
<path d="M338.99 222.38H337.324C336.819 222.38 336.409 222.789 336.409 223.294C336.409 223.799 336.819 224.208 337.324 224.208H338.99C339.495 224.208 339.905 223.799 339.905 223.294C339.905 222.789 339.495 222.38 338.99 222.38Z" fill="white"/>
<path d="M344.389 222.38H342.723C342.218 222.38 341.808 222.789 341.808 223.294C341.808 223.799 342.218 224.208 342.723 224.208H344.389C344.894 224.208 345.304 223.799 345.304 223.294C345.304 222.789 344.894 222.38 344.389 222.38Z" fill="white"/>
<path d="M333.807 222.228H323.452C322.947 222.228 322.537 222.637 322.537 223.142C322.537 223.646 322.947 224.056 323.452 224.056H333.807C334.312 224.056 334.722 223.646 334.722 223.142C334.722 222.637 334.312 222.228 333.807 222.228Z" fill="white"/>
<path d="M323.746 238.783H322.08C321.575 238.783 321.165 239.193 321.165 239.697C321.165 240.202 321.575 240.611 322.08 240.611H323.746C324.251 240.611 324.66 240.202 324.66 239.697C324.66 239.193 324.251 238.783 323.746 238.783Z" fill="white"/>
<path d="M329.145 238.783H327.479C326.973 238.783 326.564 239.193 326.564 239.697C326.564 240.202 326.973 240.611 327.479 240.611H329.145C329.65 240.611 330.059 240.202 330.059 239.697C330.059 239.193 329.65 238.783 329.145 238.783Z" fill="white"/>
<path d="M343.97 238.936H333.615C333.109 238.936 332.7 239.345 332.7 239.85C332.7 240.354 333.109 240.764 333.615 240.764H343.97C344.475 240.764 344.884 240.354 344.884 239.85C344.884 239.345 344.475 238.936 343.97 238.936Z" fill="white"/>
<path d="M304.69 238.783H303.024C302.519 238.783 302.11 239.193 302.11 239.697C302.11 240.202 302.519 240.611 303.024 240.611H304.69C305.196 240.611 305.605 240.202 305.605 239.697C305.605 239.193 305.196 238.783 304.69 238.783Z" fill="white"/>
<path d="M318.563 238.936H308.207C307.702 238.936 307.293 239.345 307.293 239.85C307.293 240.354 307.702 240.764 308.207 240.764H318.563C319.068 240.764 319.477 240.354 319.477 239.85C319.477 239.345 319.068 238.936 318.563 238.936Z" fill="white"/>
<path d="M309.772 234.658H308.106C307.601 234.658 307.191 235.067 307.191 235.572C307.191 236.077 307.601 236.486 308.106 236.486H309.772C310.277 236.486 310.687 236.077 310.687 235.572C310.687 235.067 310.277 234.658 309.772 234.658Z" fill="white"/>
<path d="M328.827 234.658H327.161C326.656 234.658 326.246 235.067 326.246 235.572C326.246 236.077 326.656 236.486 327.161 236.486H328.827C329.332 236.486 329.742 236.077 329.742 235.572C329.742 235.067 329.332 234.658 328.827 234.658Z" fill="white"/>
<path d="M334.226 234.658H332.56C332.055 234.658 331.646 235.067 331.646 235.572C331.646 236.077 332.055 236.486 332.56 236.486H334.226C334.731 236.486 335.141 236.077 335.141 235.572C335.141 235.067 334.731 234.658 334.226 234.658Z" fill="white"/>
<path d="M323.644 234.811H313.289C312.784 234.811 312.374 235.22 312.374 235.725C312.374 236.229 312.784 236.638 313.289 236.638H323.644C324.149 236.638 324.559 236.229 324.559 235.725C324.559 235.22 324.149 234.811 323.644 234.811Z" fill="white"/>
<path d="M314.853 230.533H313.187C312.682 230.533 312.272 230.942 312.272 231.447C312.272 231.952 312.682 232.361 313.187 232.361H314.853C315.358 232.361 315.768 231.952 315.768 231.447C315.768 230.942 315.358 230.533 314.853 230.533Z" fill="white"/>
<path d="M333.909 230.533H332.242C331.737 230.533 331.328 230.942 331.328 231.447C331.328 231.952 331.737 232.361 332.242 232.361H333.909C334.414 232.361 334.823 231.952 334.823 231.447C334.823 230.942 334.414 230.533 333.909 230.533Z" fill="white"/>
<path d="M339.308 230.533H337.641C337.136 230.533 336.727 230.942 336.727 231.447C336.727 231.952 337.136 232.361 337.641 232.361H339.308C339.813 232.361 340.222 231.952 340.222 231.447C340.222 230.942 339.813 230.533 339.308 230.533Z" fill="white"/>
<path d="M328.726 230.686H318.37C317.865 230.686 317.456 231.095 317.456 231.599C317.456 232.104 317.865 232.513 318.37 232.513H328.726C329.231 232.513 329.64 232.104 329.64 231.599C329.64 231.095 329.231 230.686 328.726 230.686Z" fill="white"/>
<path d="M319.935 226.408H318.269C317.764 226.408 317.354 226.817 317.354 227.322C317.354 227.827 317.764 228.236 318.269 228.236H319.935C320.44 228.236 320.849 227.827 320.849 227.322C320.849 226.817 320.44 226.408 319.935 226.408Z" fill="white"/>
<path d="M338.99 226.408H337.324C336.819 226.408 336.409 226.817 336.409 227.322C336.409 227.827 336.819 228.236 337.324 228.236H338.99C339.495 228.236 339.905 227.827 339.905 227.322C339.905 226.817 339.495 226.408 338.99 226.408Z" fill="white"/>
<path d="M344.389 226.408H342.723C342.218 226.408 341.808 226.817 341.808 227.322C341.808 227.827 342.218 228.236 342.723 228.236H344.389C344.894 228.236 345.304 227.827 345.304 227.322C345.304 226.817 344.894 226.408 344.389 226.408Z" fill="white"/>
<path d="M333.807 226.56H323.452C322.947 226.56 322.537 226.97 322.537 227.474C322.537 227.979 322.947 228.388 323.452 228.388H333.807C334.312 228.388 334.722 227.979 334.722 227.474C334.722 226.97 334.312 226.56 333.807 226.56Z" fill="white"/>
<path d="M265.833 287.128L258.011 274.775L282.562 255.221L292.695 244.004C294.011 242.547 295.688 241.461 297.556 240.853C299.425 240.246 301.42 240.139 303.342 240.544C305.265 240.949 307.048 241.85 308.512 243.159C309.977 244.468 311.072 246.137 311.689 248.001C312.602 250.764 312.406 253.773 311.141 256.393C309.876 259.013 307.642 261.04 304.91 262.046L288.886 267.944L265.833 287.128Z" fill="#FFB6B6"/>
<path d="M112.312 197.561V257.6H154.409V197.561C154.409 197.13 154.272 196.709 154.015 196.361C153.759 196.014 153.398 195.757 152.985 195.63C152.79 195.565 152.587 195.534 152.382 195.536H114.345C114.078 195.535 113.814 195.587 113.567 195.689C113.321 195.791 113.097 195.94 112.908 196.128C112.719 196.316 112.569 196.539 112.467 196.785C112.365 197.031 112.312 197.295 112.312 197.561ZM128.74 218.191C128.751 217.007 129.23 215.876 130.071 215.043C130.913 214.21 132.05 213.742 133.234 213.742C134.419 213.742 135.556 214.21 136.397 215.043C137.239 215.876 137.717 217.007 137.728 218.191V225.157C137.722 226.344 137.246 227.48 136.404 228.317C135.562 229.154 134.422 229.624 133.234 229.624C132.046 229.624 130.907 229.154 130.065 228.317C129.223 227.48 128.746 226.344 128.74 225.157V218.191Z" fill="#2F2E41"/>
<path d="M112.183 255.68V261.47C112.184 261.77 112.303 262.057 112.515 262.27C112.726 262.482 113.014 262.603 113.314 262.605H153.407C153.707 262.604 153.995 262.484 154.207 262.271C154.419 262.058 154.538 261.77 154.538 261.47V255.68H112.183Z" fill="#3F3D56"/>
<path d="M46.0871 107.105V216.727C46.0882 218.124 46.6441 219.464 47.6328 220.452C48.6214 221.439 49.962 221.995 51.3602 221.996H213.948C215.346 221.995 216.687 221.439 217.676 220.452C218.664 219.464 219.22 218.124 219.221 216.727V107.105C219.218 105.71 218.661 104.372 217.673 103.386C216.685 102.399 215.345 101.844 213.948 101.843H51.3602C49.9633 101.844 48.6239 102.399 47.6356 103.386C46.6472 104.372 46.0904 105.71 46.0871 107.105Z" fill="#3F3D56"/>
<path d="M49.9013 108.469V215.375C49.9026 216.122 50.1999 216.837 50.7281 217.365C51.2564 217.893 51.9725 218.19 52.7195 218.191H212.595C213.342 218.19 214.058 217.893 214.586 217.365C215.114 216.837 215.412 216.122 215.413 215.375V108.469C215.413 107.722 215.116 107.005 214.588 106.476C214.06 105.947 213.343 105.649 212.595 105.648H52.7195C51.9716 105.649 51.2548 105.947 50.7265 106.476C50.1981 107.005 49.9014 107.722 49.9013 108.469Z" fill="white"/>
<path d="M79.5715 262.213C79.7342 262.417 79.9411 262.581 80.1765 262.694C80.4119 262.806 80.6698 262.864 80.9308 262.863H176.046C176.306 262.863 176.563 262.804 176.798 262.692C177.033 262.58 177.24 262.418 177.403 262.216C177.567 262.014 177.684 261.778 177.745 261.526C177.806 261.273 177.81 261.01 177.757 260.755L176.281 253.748C176.219 253.462 176.088 253.197 175.897 252.975C175.707 252.753 175.464 252.582 175.191 252.478C174.993 252.4 174.782 252.361 174.57 252.361H82.4014C82.1889 252.361 81.9782 252.4 81.7804 252.478C81.5071 252.582 81.2642 252.753 81.0739 252.975C80.8835 253.197 80.7518 253.462 80.6906 253.748L79.2141 260.755C79.1616 261.01 79.1664 261.272 79.2282 261.525C79.29 261.777 79.4073 262.012 79.5715 262.213Z" fill="#2F2E41"/>
<path d="M207.406 120.374H57.8117C57.6562 120.371 57.5082 120.307 57.3995 120.196C57.2907 120.085 57.2299 119.935 57.2299 119.78C57.2299 119.625 57.2907 119.475 57.3995 119.364C57.5082 119.253 57.6562 119.189 57.8117 119.186H207.406C207.562 119.189 207.71 119.253 207.819 119.364C207.927 119.475 207.988 119.625 207.988 119.78C207.988 119.935 207.927 120.085 207.819 120.196C207.71 120.307 207.562 120.371 207.406 120.374Z" fill="#3F3D56"/>
<path d="M67.9948 116.151C69.9203 116.151 71.4812 114.557 71.4812 112.59C71.4812 110.623 69.9203 109.029 67.9948 109.029C66.0693 109.029 64.5084 110.623 64.5084 112.59C64.5084 114.557 66.0693 116.151 67.9948 116.151Z" fill="#3F3D56"/>
<path d="M80.0386 116.151C81.9641 116.151 83.525 114.557 83.525 112.59C83.525 110.623 81.9641 109.029 80.0386 109.029C78.1131 109.029 76.5522 110.623 76.5522 112.59C76.5522 114.557 78.1131 116.151 80.0386 116.151Z" fill="#3F3D56"/>
<path d="M92.0824 116.151C94.0079 116.151 95.5688 114.557 95.5688 112.59C95.5688 110.623 94.0079 109.029 92.0824 109.029C90.157 109.029 88.5961 110.623 88.5961 112.59C88.5961 114.557 90.157 116.151 92.0824 116.151Z" fill="#3F3D56"/>
<path d="M200.154 109.909H191.6C191.431 109.913 191.27 109.983 191.152 110.104C191.033 110.225 190.967 110.387 190.967 110.556C190.967 110.725 191.033 110.888 191.152 111.008C191.27 111.129 191.431 111.199 191.6 111.203H200.154C200.324 111.201 200.486 111.132 200.606 111.011C200.725 110.889 200.792 110.726 200.792 110.556C200.792 110.386 200.725 110.223 200.606 110.102C200.486 109.981 200.324 109.912 200.154 109.909Z" fill="#3F3D56"/>
<path d="M200.154 112.339H191.6C191.431 112.343 191.27 112.412 191.151 112.533C191.033 112.654 190.967 112.817 190.967 112.986C190.967 113.155 191.033 113.317 191.151 113.438C191.27 113.559 191.431 113.629 191.6 113.633H200.154C200.324 113.631 200.487 113.562 200.607 113.44C200.727 113.319 200.794 113.156 200.794 112.986C200.794 112.816 200.727 112.652 200.607 112.531C200.487 112.41 200.324 112.341 200.154 112.339Z" fill="#3F3D56"/>
<path d="M200.154 114.768H191.6C191.431 114.772 191.27 114.842 191.152 114.963C191.033 115.084 190.967 115.246 190.967 115.415C190.967 115.584 191.033 115.746 191.152 115.867C191.27 115.988 191.431 116.058 191.6 116.062H200.154C200.324 116.06 200.486 115.99 200.606 115.869C200.725 115.748 200.792 115.585 200.792 115.415C200.792 115.245 200.725 115.082 200.606 114.961C200.486 114.84 200.324 114.771 200.154 114.768Z" fill="#3F3D56"/>
<path d="M406.38 258.221C406.638 258.972 407.128 259.622 407.778 260.077C408.429 260.533 409.208 260.771 410.002 260.756L425.524 260.357C426.324 260.342 427.098 260.068 427.73 259.576C428.362 259.085 428.817 258.402 429.028 257.631L431.225 234.164C432.004 234.517 432.852 234.691 433.708 234.674C434.451 234.655 435.183 234.49 435.863 234.189C436.542 233.888 437.155 233.456 437.668 232.917C438.18 232.379 438.581 231.745 438.848 231.052C439.115 230.359 439.243 229.62 439.225 228.878C439.206 228.135 439.041 227.404 438.739 226.725C438.438 226.046 438.005 225.433 437.467 224.921C436.928 224.41 436.294 224.009 435.6 223.742C434.906 223.475 434.167 223.347 433.424 223.366C433.082 223.365 432.741 223.4 432.406 223.471C432.043 223.078 431.601 222.766 431.109 222.554C430.617 222.342 430.086 222.235 429.551 222.24L405.675 222.856C405.477 222.864 405.28 222.888 405.086 222.929C404.562 223.027 404.066 223.235 403.63 223.541C403.193 223.846 402.828 224.241 402.557 224.7C402.287 225.158 402.117 225.669 402.061 226.198C402.005 226.728 402.063 227.263 402.231 227.768L406.38 258.221ZM431.675 232.571L433.238 226.978C433.416 226.332 433.42 225.651 433.25 225.003C433.326 225.003 433.393 224.967 433.469 224.967C434.54 224.944 435.577 225.348 436.352 226.088C437.126 226.829 437.575 227.846 437.6 228.916C437.625 229.987 437.224 231.024 436.485 231.8C435.747 232.576 434.73 233.027 433.658 233.055C432.965 233.077 432.28 232.909 431.675 232.571Z" fill="#2F2E41"/>
<path d="M405.086 222.929C405.595 225.835 411.314 227.878 418.19 227.523C424.514 227.232 429.684 225.014 430.631 222.384C430.281 222.281 429.916 222.232 429.551 222.24L405.675 222.856C405.477 222.864 405.28 222.888 405.086 222.929Z" fill="#3F3D56"/>
<path d="M419.45 245.326C419.482 245.318 419.512 245.304 419.539 245.287L422.91 243.082C422.95 243.056 422.984 243.019 423.007 242.977C423.03 242.934 423.042 242.886 423.042 242.838C423.042 242.789 423.03 242.741 423.007 242.698C422.984 242.656 422.95 242.619 422.91 242.593L419.406 240.3C419.374 240.279 419.338 240.264 419.3 240.257C419.262 240.249 419.223 240.25 419.186 240.257C419.148 240.265 419.112 240.28 419.08 240.302C419.048 240.324 419.021 240.351 419 240.384C418.979 240.416 418.964 240.452 418.957 240.49C418.95 240.528 418.95 240.566 418.958 240.604C418.966 240.642 418.981 240.678 419.003 240.709C419.025 240.741 419.053 240.768 419.085 240.789L422.214 242.837L419.218 244.797C419.16 244.835 419.117 244.892 419.098 244.958C419.078 245.025 419.082 245.096 419.11 245.16C419.138 245.223 419.188 245.274 419.25 245.305C419.312 245.335 419.383 245.343 419.45 245.326H419.45Z" fill="#F9A826"/>
<path d="M414.126 245.571C414.183 245.557 414.234 245.526 414.273 245.482C414.312 245.439 414.337 245.385 414.345 245.327C414.353 245.269 414.343 245.21 414.317 245.158C414.292 245.106 414.251 245.062 414.2 245.033L411.093 243.253L414.096 241.025C414.127 241.002 414.153 240.973 414.173 240.94C414.193 240.907 414.206 240.871 414.211 240.833C414.217 240.795 414.215 240.756 414.206 240.719C414.196 240.681 414.18 240.646 414.157 240.615C414.134 240.585 414.105 240.559 414.072 240.539C414.039 240.519 414.002 240.506 413.964 240.5C413.926 240.495 413.888 240.497 413.85 240.506C413.813 240.516 413.778 240.532 413.747 240.555L410.385 243.05C410.346 243.079 410.314 243.118 410.294 243.162C410.273 243.206 410.264 243.254 410.267 243.303C410.27 243.351 410.285 243.398 410.31 243.439C410.336 243.481 410.371 243.515 410.414 243.539L413.909 245.541C413.975 245.579 414.053 245.59 414.126 245.571Z" fill="#F9A826"/>
<path d="M419.115 247.257C419.143 247.25 419.171 247.239 419.195 247.224C419.228 247.204 419.257 247.177 419.28 247.146C419.302 247.115 419.319 247.08 419.328 247.043C419.337 247.005 419.339 246.967 419.333 246.929C419.327 246.891 419.314 246.854 419.294 246.821L414.515 238.972C414.475 238.906 414.41 238.858 414.334 238.84C414.259 238.822 414.179 238.834 414.113 238.875C414.046 238.915 413.999 238.98 413.98 239.055C413.962 239.131 413.974 239.21 414.015 239.277L418.793 247.126C418.826 247.179 418.874 247.221 418.932 247.245C418.99 247.268 419.054 247.273 419.115 247.257Z" fill="#F9A826"/>
<path d="M150.483 152.688H124.591C123.535 152.688 122.679 153.544 122.679 154.599V157.127C122.679 158.182 123.535 159.037 124.591 159.037H150.483C151.539 159.037 152.395 158.182 152.395 157.127V154.599C152.395 153.544 151.539 152.688 150.483 152.688Z" fill="#F9A826"/>
<path d="M165.575 165.387H109.5C108.443 165.387 107.587 166.242 107.587 167.297V169.825C107.587 170.88 108.443 171.736 109.5 171.736H165.575C166.631 171.736 167.488 170.88 167.488 169.825V167.297C167.488 166.242 166.631 165.387 165.575 165.387Z" fill="#E6E6E6"/>
<path d="M165.575 178.085H109.5C108.443 178.085 107.587 178.94 107.587 179.996V182.523C107.587 183.578 108.443 184.434 109.5 184.434H165.575C166.631 184.434 167.488 183.578 167.488 182.523V179.996C167.488 178.94 166.631 178.085 165.575 178.085Z" fill="#E6E6E6"/>
<path d="M140.328 220.606L140.455 221.006L140.462 221.02L144.285 232.633L148.683 246.016L156.958 271.165L157.038 275.072V275.085L157.653 306.512L155.948 310.773L157.867 317.758C157.867 317.758 156.984 307.199 152.252 313.263C149.572 316.709 146.437 320.235 143.864 323.54C147.614 325.056 151.424 326.428 155.293 327.654C156.129 327.921 156.971 328.175 157.813 328.429C157.994 328.482 158.174 328.536 158.355 328.589C171.183 332.38 184.445 334.509 197.816 334.927C198.511 334.947 199.193 334.96 199.854 334.973C200.088 334.98 200.315 334.987 200.543 334.987C201.291 334.993 202.033 335 202.782 335C204.292 335 205.796 334.978 207.293 334.933C218.375 334.621 229.391 333.133 240.158 330.492C240.084 326.051 239.883 320.863 239.596 315.32C239.462 312.602 236.461 309.657 236.281 306.812C236.154 304.675 238.848 302.665 238.707 300.494C237.798 287.132 236.662 292.261 235.82 282.799C235.733 281.87 235.653 280.982 235.579 280.134C235.038 274.057 234.663 270.257 234.663 270.257L238.259 247.612L243.907 212.058L243.473 211.343L242.985 211.103L213.195 196.371L211.578 192.231C211.106 191.038 210.289 190.013 209.23 189.288C208.171 188.564 206.919 188.172 205.636 188.164L186.012 188.084C184.994 188.079 183.989 188.317 183.081 188.778C182.173 189.239 181.389 189.91 180.792 190.735L175.479 198.087L140.328 220.606Z" fill="#3F3D56"/>
<path d="M161.483 265.569L157.038 275.072L154.004 281.563L148.784 308.87L146.17 311.641L143.931 301.83L120.496 307.029C119.728 302.762 120.291 307.173 119.816 302.492C119.95 302.359 120.09 302.225 120.23 302.091C120.605 301.744 120.919 301.417 120.912 301.103C120.645 284.956 121.447 257.475 128.144 240.827C129.193 238.109 130.576 235.531 132.261 233.154C132.395 232.974 132.522 232.793 132.649 232.613C135.737 228.292 137.688 224.038 140.456 221.013V221.007C140.473 220.993 140.488 220.977 140.502 220.96C140.512 220.955 140.521 220.948 140.529 220.94L159.538 210.869L160.353 233.762L160.935 250.216L161.483 265.569Z" fill="#3F3D56"/>
<path d="M230.024 268.268L235.576 280.137L237.514 284.271L242.733 311.575L245.338 314.339L247.582 304.531L248.636 304.315L267.654 300.379L273.197 317.968C274.446 315.889 274.938 313.442 274.59 311.041C274.242 308.64 273.075 306.434 271.286 304.794C270.907 304.451 270.592 304.118 270.601 303.803C270.916 284.811 269.754 250.131 259.254 235.858C255.919 231.328 253.918 226.817 251.007 223.665C250.998 223.656 250.998 223.647 250.989 223.647L243.904 212.057L243.472 211.346L242.985 211.103L230.024 268.268Z" fill="#3F3D56"/>
<path d="M196.391 182.504C210.809 182.504 222.498 170.825 222.498 156.419C222.498 142.013 210.809 130.335 196.391 130.335C181.972 130.335 170.284 142.013 170.284 156.419C170.284 170.825 181.972 182.504 196.391 182.504Z" fill="#FFB6B6"/>
<path d="M231.677 138.199C231.475 137.983 231.231 137.81 230.96 137.691C230.689 137.571 230.397 137.507 230.101 137.503L230.494 136.414C230.622 136.071 230.656 135.7 230.594 135.339C230.531 134.979 230.374 134.641 230.138 134.361C229.902 134.081 229.596 133.869 229.25 133.746C228.905 133.624 228.534 133.595 228.174 133.663L226.744 133.938L226.879 132.984C226.93 132.628 226.889 132.265 226.757 131.931C226.626 131.597 226.41 131.302 226.131 131.077C225.851 130.851 225.517 130.702 225.163 130.644C224.808 130.587 224.444 130.622 224.107 130.747C223.801 130.868 223.471 130.918 223.143 130.895C222.814 130.872 222.495 130.775 222.209 130.613C221.922 130.455 221.672 130.237 221.478 129.973C221.283 129.709 221.149 129.406 221.084 129.085L220.586 126.685L220.533 126.556C218.108 122.517 213.444 119.578 207.737 118.501C202.657 117.535 197.449 118.027 192.428 118.489C190.436 118.676 188.186 118.887 186.311 120.034C184.717 121.018 183.37 122.985 183.645 124.969C178.694 123.453 173.386 126.48 170.755 130.297C167.638 134.839 167.128 140.529 167.046 144.978C166.824 155.504 168.997 164.115 173.491 170.578C173.819 171.046 173.901 172.024 174.552 172.352L174.417 172.135C175.143 172.498 175.882 173.083 175.606 173.71C174.815 175.513 180.071 179.499 183.774 180.817C190.529 183.223 199.511 183.018 205.827 182.151L206.05 180.659C208.329 180.348 209.934 179.757 210.386 178.832C211.182 178.153 211.862 177.544 212.454 176.982L212.46 176.976C212.471 176.965 212.495 176.947 212.506 176.935C215.36 174.202 216.022 172.644 216.321 170.274C216.608 167.95 216.098 165.59 215.577 163.465C226.556 165.163 211.253 151.781 221.483 149.193C221.6 149.157 221.719 149.128 221.84 149.105C222.139 149.035 222.438 148.965 222.725 148.883C224.109 148.508 225.434 147.942 226.662 147.203C229.521 145.464 230.464 143.158 231.941 140.559C232.154 140.189 232.243 139.76 232.196 139.336C232.148 138.912 231.967 138.513 231.677 138.199Z" fill="#2F2E41"/>
<path d="M288.727 270.125C288.721 271.15 288.709 272.584 288.662 274.358C288.656 274.604 288.65 274.855 288.645 275.113C288.568 278.374 288.492 281.107 288.369 284.146C288.363 284.356 288.357 284.561 288.346 284.772C288.182 289.01 287.924 293.945 287.479 301.76C286.652 316.196 285.211 303.745 283.764 308.809C283.694 309.06 283.617 309.359 283.547 309.71C283.328 310.985 282.958 312.228 282.446 313.416C281.678 313.872 280.887 314.311 280.108 314.75C277.887 315.986 275.632 317.174 273.358 318.304C272.081 318.936 270.798 319.557 269.509 320.154C269.304 320.247 269.105 320.341 268.906 320.429C262.305 323.479 255.502 326.073 248.545 328.191C247.186 328.601 245.833 328.999 244.462 329.368C243.032 329.766 241.602 330.141 240.155 330.492C229.389 333.133 218.373 334.622 207.292 334.935C205.798 334.982 204.292 334.999 202.781 334.999C202.031 334.999 201.292 334.994 200.542 334.988C200.314 334.988 200.085 334.982 199.857 334.976C199.195 334.958 198.509 334.947 197.818 334.929C184.447 334.512 171.185 332.382 158.357 328.589L157.813 328.431C156.969 328.174 156.131 327.922 155.293 327.653C151.426 326.429 147.616 325.059 143.862 323.543C140.997 322.39 138.165 321.153 135.367 319.832C135.341 319.825 135.317 319.813 135.296 319.797C134.71 319.527 134.119 319.246 133.533 318.959C133.457 318.918 133.375 318.877 133.292 318.837C131.107 317.771 128.945 316.655 126.807 315.488C125.008 311.361 122.477 310.571 120.906 306.941C120.449 305.863 120.119 304.735 119.922 303.581C119.922 303.569 119.916 303.558 119.916 303.54C120.08 305.718 119.219 299.676 119.91 303.517C119.905 303.446 119.899 303.37 119.893 303.282C119.875 303.072 119.852 302.814 119.817 302.492C117.807 282.887 117.936 260.466 117.063 241.991C117.004 240.797 116.944 239.653 116.881 238.561C116.864 238.198 116.84 237.841 116.817 237.489C116.858 237.384 116.905 237.273 116.958 237.167C116.969 237.137 116.982 237.108 116.999 237.079C117.016 237.043 117.035 237.008 117.057 236.974C117.069 236.957 117.086 236.933 117.098 236.916C117.107 236.895 117.116 236.876 117.127 236.857C117.18 236.775 117.239 236.687 117.303 236.605C117.332 236.57 117.356 236.541 117.385 236.512C117.405 236.482 117.429 236.454 117.456 236.43C117.474 236.402 117.495 236.376 117.52 236.354C117.543 236.33 117.567 236.301 117.596 236.272C117.609 236.253 117.625 236.237 117.643 236.225C117.689 236.172 117.74 236.123 117.795 236.078C118.004 235.886 118.228 235.71 118.463 235.552C118.545 235.499 118.633 235.446 118.715 235.388C119.306 235.035 119.927 234.737 120.573 234.498C120.795 234.416 121.018 234.34 121.258 234.258C121.346 234.234 121.428 234.205 121.516 234.176C121.645 234.135 121.774 234.094 121.908 234.065C122.576 233.866 123.297 233.696 124.076 233.538C124.17 233.52 124.27 233.503 124.369 233.479C124.51 233.45 124.656 233.427 124.803 233.403C125.002 233.368 125.207 233.333 125.412 233.298C127.152 233.023 129.127 232.818 131.306 232.683C131.511 232.671 131.716 232.66 131.921 232.648C132.162 232.636 132.402 232.625 132.648 232.613C132.853 232.601 133.064 232.595 133.275 232.589C133.48 232.578 133.691 232.572 133.908 232.566C134.499 232.549 135.109 232.531 135.73 232.519C137.499 232.484 139.362 232.496 141.319 232.537C142.228 232.56 143.153 232.584 144.102 232.625C144.167 232.625 144.225 232.63 144.284 232.63C145.11 232.66 145.942 232.695 146.798 232.742C147.395 232.771 147.999 232.8 148.602 232.835C149.17 232.87 149.745 232.906 150.325 232.947C150.776 232.97 151.227 233.005 151.684 233.034C152.071 233.064 152.457 233.093 152.844 233.116L153.371 233.151C153.658 233.175 153.946 233.192 154.238 233.222C154.883 233.274 155.527 233.327 156.184 233.38C156.834 233.438 157.496 233.497 158.158 233.555C158.82 233.614 159.488 233.678 160.156 233.743C160.226 233.749 160.291 233.754 160.355 233.76C160.965 233.825 161.574 233.883 162.189 233.948C162.33 233.959 162.476 233.971 162.617 233.989C163.203 234.047 163.801 234.116 164.393 234.179C164.575 234.199 164.756 234.218 164.938 234.238C165.402 234.288 165.859 234.332 166.326 234.387C166.941 234.457 167.568 234.521 168.177 234.603C168.652 234.656 169.126 234.709 169.601 234.767C170.345 234.855 171.101 234.949 171.857 235.048C172.144 235.083 172.431 235.118 172.718 235.159C174.874 235.429 177.053 235.727 179.268 236.037C182.625 236.512 186.035 237.027 189.469 237.583C192.908 238.139 196.367 238.726 199.845 239.345C200.724 239.503 201.603 239.661 202.488 239.825C202.886 239.901 203.284 239.977 203.683 240.053C204.362 240.176 205.042 240.305 205.722 240.434C206.401 240.563 207.081 240.691 207.761 240.826C208.569 240.984 209.384 241.142 210.192 241.3C215.518 242.354 220.815 243.478 225.982 244.655C226.832 244.848 227.681 245.047 228.525 245.24C230.212 245.632 231.884 246.03 233.54 246.434C233.997 246.54 234.449 246.651 234.9 246.762C236.025 247.043 237.15 247.324 238.257 247.611L238.45 247.664C239.265 247.863 240.061 248.067 240.858 248.278C242.739 248.77 244.589 249.268 246.407 249.771C247.614 250.105 248.807 250.442 249.987 250.784C251.75 251.293 253.479 251.808 255.16 252.329C255.576 252.458 255.992 252.587 256.402 252.71C257.633 253.09 258.845 253.477 260.023 253.863C260.961 254.167 261.875 254.478 262.777 254.788C263.679 255.098 264.564 255.408 265.431 255.719C265.988 255.918 266.538 256.128 267.089 256.327C267.88 256.62 268.659 256.913 269.421 257.206C269.655 257.293 269.884 257.387 270.112 257.475C270.259 257.539 270.399 257.592 270.54 257.65C270.815 257.762 271.097 257.867 271.366 257.978C271.642 258.084 271.911 258.195 272.181 258.312C272.444 258.417 272.714 258.529 272.972 258.64C273.235 258.745 273.493 258.856 273.751 258.973C273.968 259.061 274.179 259.155 274.384 259.249C274.8 259.43 275.216 259.612 275.62 259.799C275.819 259.893 276.018 259.98 276.217 260.074L276.675 260.285C276.739 260.32 276.803 260.349 276.868 260.378C277.014 260.449 277.167 260.525 277.313 260.595C277.653 260.753 277.987 260.923 278.315 261.081C278.754 261.303 279.182 261.526 279.592 261.742C280.008 261.965 280.413 262.187 280.799 262.404C280.864 262.439 280.922 262.474 280.987 262.509C281.075 262.556 281.163 262.609 281.25 262.656C281.549 262.825 281.836 263.001 282.123 263.171C282.686 263.516 283.219 263.856 283.717 264.195C283.828 264.271 283.934 264.347 284.045 264.418C284.414 264.681 284.766 264.939 285.094 265.202C285.094 265.208 285.094 265.208 285.1 265.208C285.211 265.29 285.317 265.378 285.422 265.46C285.51 265.542 285.604 265.612 285.692 265.694C285.996 265.957 286.277 266.209 286.535 266.467C286.622 266.546 286.704 266.63 286.781 266.718C286.815 266.747 286.847 266.778 286.875 266.812C286.992 266.929 287.098 267.046 287.197 267.163C287.213 267.179 287.227 267.197 287.238 267.216C287.379 267.38 287.508 267.544 287.631 267.708C287.689 267.79 287.754 267.872 287.807 267.953C287.877 268.053 287.947 268.158 288.006 268.258C288.059 268.34 288.105 268.428 288.152 268.51C288.277 268.721 288.383 268.942 288.469 269.171C288.535 269.327 288.587 269.487 288.627 269.651C288.671 269.807 288.705 269.965 288.727 270.125Z" fill="#2F2E41"/>
<path opacity="0.2" d="M288.727 270.125C288.721 271.15 288.709 272.584 288.662 274.358C288.656 274.604 288.645 274.855 288.639 275.113C288.58 277.601 288.492 280.674 288.369 284.146C288.363 284.356 288.357 284.561 288.346 284.772C288.182 289.01 287.924 293.945 287.479 301.76C286.653 316.196 285.211 303.745 283.764 308.809C279.745 306.338 275.339 303.751 270.628 301.093C269.779 300.613 268.921 300.131 268.056 299.647C258.635 294.396 248.112 288.893 237.126 283.443C236.693 283.227 236.253 283.01 235.82 282.799C210.655 270.371 183.188 258.283 160.935 250.216C156.641 248.659 152.539 247.254 148.684 246.019C140.564 243.425 133.544 241.61 128.142 240.826C122.518 240.006 118.633 240.299 117.063 241.991C117.004 240.797 116.944 239.653 116.881 238.561C116.858 238.198 116.834 237.84 116.811 237.489C116.847 237.393 116.894 237.301 116.94 237.208C116.946 237.195 116.951 237.181 116.958 237.167C116.969 237.137 116.982 237.108 116.999 237.079C117.016 237.043 117.035 237.008 117.057 236.974C117.076 236.933 117.1 236.893 117.127 236.857C117.18 236.775 117.239 236.687 117.303 236.605C117.351 236.544 117.401 236.485 117.456 236.43C117.474 236.401 117.495 236.376 117.52 236.354C117.543 236.33 117.567 236.301 117.596 236.272C117.609 236.253 117.625 236.237 117.643 236.225C117.689 236.172 117.74 236.123 117.795 236.078C118.004 235.886 118.228 235.71 118.463 235.552C118.545 235.499 118.633 235.446 118.715 235.388C119.306 235.035 119.927 234.737 120.573 234.498C120.795 234.416 121.018 234.34 121.258 234.258C121.346 234.234 121.428 234.205 121.516 234.176C121.645 234.135 121.774 234.094 121.908 234.065C122.576 233.866 123.297 233.696 124.076 233.538C124.311 233.491 124.557 233.444 124.803 233.403C125.002 233.368 125.207 233.333 125.412 233.298C127.152 233.023 129.127 232.818 131.306 232.683C131.511 232.671 131.716 232.66 131.921 232.648C132.162 232.636 132.402 232.625 132.648 232.613C132.853 232.601 133.064 232.595 133.275 232.589C133.48 232.578 133.691 232.572 133.908 232.566C134.499 232.548 135.109 232.531 135.73 232.519C137.499 232.49 139.362 232.502 141.319 232.543C142.228 232.56 143.153 232.589 144.102 232.63C144.161 232.63 144.225 232.636 144.284 232.636C145.11 232.66 145.948 232.701 146.798 232.742C147.395 232.771 147.999 232.8 148.602 232.835C149.17 232.87 149.745 232.906 150.325 232.947C150.776 232.97 151.227 233.005 151.684 233.034C152.071 233.064 152.457 233.093 152.844 233.116C153.307 233.151 153.77 233.187 154.238 233.222C154.883 233.274 155.527 233.327 156.184 233.38C156.834 233.438 157.496 233.497 158.158 233.555C158.82 233.614 159.488 233.678 160.156 233.743C160.226 233.749 160.291 233.754 160.355 233.76C160.965 233.825 161.574 233.883 162.189 233.948C165.599 234.293 169.109 234.697 172.718 235.159C174.874 235.434 177.057 235.729 179.268 236.043C182.625 236.517 186.035 237.033 189.469 237.583C192.908 238.139 196.367 238.726 199.845 239.345C200.724 239.503 201.603 239.661 202.488 239.825C203.566 240.024 204.644 240.227 205.722 240.434C206.401 240.563 207.081 240.691 207.761 240.826C208.569 240.984 209.384 241.142 210.192 241.3C215.518 242.354 220.815 243.478 225.982 244.655C226.832 244.848 227.681 245.047 228.525 245.24C230.212 245.632 231.884 246.03 233.54 246.434C233.997 246.545 234.449 246.657 234.9 246.768C236.031 247.049 237.15 247.33 238.257 247.611V247.617C238.321 247.628 238.386 247.646 238.45 247.663C239.259 247.868 240.062 248.073 240.858 248.284C242.739 248.776 244.589 249.271 246.407 249.771C247.614 250.11 248.809 250.444 249.987 250.784C251.75 251.299 253.479 251.814 255.16 252.329C255.576 252.458 255.992 252.587 256.402 252.71C257.633 253.096 258.84 253.48 260.023 253.863C260.961 254.167 261.875 254.478 262.777 254.788C263.679 255.098 264.564 255.408 265.431 255.719C265.994 255.918 266.544 256.123 267.089 256.322C267.886 256.614 268.659 256.907 269.421 257.206C269.655 257.293 269.884 257.387 270.112 257.475C270.54 257.639 270.956 257.808 271.366 257.978C271.642 258.084 271.911 258.195 272.181 258.312C272.444 258.417 272.714 258.529 272.972 258.64C273.235 258.745 273.493 258.856 273.751 258.973C273.968 259.061 274.179 259.155 274.384 259.249C274.8 259.43 275.216 259.612 275.62 259.799C275.819 259.892 276.018 259.98 276.218 260.074L276.675 260.285C276.739 260.32 276.803 260.349 276.868 260.378C277.366 260.613 277.846 260.847 278.315 261.081C278.755 261.303 279.182 261.526 279.592 261.742C280.079 262 280.542 262.252 280.987 262.509C281.075 262.556 281.163 262.609 281.25 262.656C281.549 262.825 281.836 263.001 282.123 263.171C282.686 263.516 283.219 263.856 283.717 264.195C284.209 264.535 284.666 264.868 285.094 265.202C285.094 265.208 285.094 265.208 285.1 265.208C285.305 265.372 285.504 265.536 285.692 265.694C285.996 265.957 286.278 266.209 286.535 266.467C286.622 266.546 286.704 266.63 286.781 266.718C286.816 266.746 286.847 266.778 286.875 266.812C286.998 266.947 287.121 267.081 287.238 267.216C287.379 267.38 287.508 267.544 287.631 267.708C287.69 267.79 287.754 267.871 287.807 267.953C287.877 268.053 287.947 268.158 288.006 268.258C288.059 268.34 288.106 268.428 288.152 268.51C288.277 268.721 288.383 268.942 288.469 269.171C288.533 269.327 288.586 269.488 288.627 269.651C288.671 269.807 288.705 269.965 288.727 270.125Z" fill="black"/>
</svg>
